<?xml version="1.0" encoding="UTF-8"?>
<svg role="img" width="769px" height="109px" viewBox="0 0 769 109" version="1.1" xmlns="http://www.w3.org/2000/svg" xmlns:xlink="http://www.w3.org/1999/xlink">
    <title>Pegasus</title>
    <g id="Page-1" stroke="none" stroke-width="1" fill="none" fill-rule="evenodd">
        <path d="M18.95,107 L18.95,73.25 L39.8,73.25 C62.9,73.25 81.8,60.95 81.8,37.4 L81.8,37.1 C81.8,15.95 66.5,2 41.9,2 L0.5,2 L0.5,107 L18.95,107 Z M40.4,56.6 L18.95,56.6 L18.95,18.8 L40.4,18.8 C54.2,18.8 63.05,25.25 63.05,37.55 L63.05,37.85 C63.05,48.8 54.35,56.6 40.4,56.6 Z M187.460403,107 L187.460403,90.5 L127.310403,90.5 L127.310403,62.3 L179.960403,62.3 L179.960403,45.8 L127.310403,45.8 L127.310403,18.5 L186.710403,18.5 L186.710403,2 L108.860403,2 L108.860403,107 L187.460403,107 Z M267.320806,108.8 C285.920806,108.8 300.770806,101.3 311.120806,92.45 L311.120806,48.35 L266.420806,48.35 L266.420806,64.4 L293.270806,64.4 L293.270806,84.05 C286.820806,88.85 277.820806,92 267.920806,92 C246.470806,92 232.220806,76.1 232.220806,54.5 L232.220806,54.2 C232.220806,34.1 246.920806,17.15 266.270806,17.15 C279.620806,17.15 287.570806,21.5 295.670806,28.4 L307.370806,14.45 C296.570806,5.3 285.320806,0.2 267.020806,0.2 C235.370806,0.2 212.870806,25.1 212.870806,54.5 L212.870806,54.8 C212.870806,85.4 234.470806,108.8 267.320806,108.8 Z M353.181209,107 L363.981209,81.65 L413.631209,81.65 L424.281209,107 L443.781209,107 L397.581209,1.25 L380.481209,1.25 L334.281209,107 L353.181209,107 Z M406.881209,65.3 L370.731209,65.3 L388.731209,23.3 L406.881209,65.3 Z M504.891612,108.5 C526.941612,108.5 542.391612,96.8 542.391612,77.15 L542.391612,76.85 C542.391612,59.45 530.991612,51.5 508.791612,46.1 C488.541612,41.3 483.741612,37.7 483.741612,29.6 L483.741612,29.3 C483.741612,22.4 490.041612,16.85 500.841612,16.85 C510.441612,16.85 519.891612,20.6 529.341612,27.65 L539.241612,13.7 C528.591612,5.15 516.441612,0.5 501.141612,0.5 C480.291612,0.5 465.291612,12.95 465.291612,30.95 L465.291612,31.25 C465.291612,50.6 477.891612,57.2 500.241612,62.6 C519.741612,67.1 523.941612,71.15 523.941612,78.65 L523.941612,78.95 C523.941612,86.75 516.741612,92.15 505.341612,92.15 C492.441612,92.15 482.241612,87.2 472.191612,78.5 L461.091612,91.7 C473.691612,102.95 488.841612,108.5 504.891612,108.5 Z M615.352015,108.65 C642.802015,108.65 660.502015,92.9 660.502015,61.55 L660.502015,2 L642.052015,2 L642.052015,62.45 C642.052015,81.8 632.002015,91.55 615.652015,91.55 C599.152015,91.55 589.102015,81.2 589.102015,61.7 L589.102015,2 L570.652015,2 L570.652015,62.45 C570.652015,92.9 588.052015,108.65 615.352015,108.65 Z M730.762418,108.5 C752.812418,108.5 768.262418,96.8 768.262418,77.15 L768.262418,76.85 C768.262418,59.45 756.862418,51.5 734.662418,46.1 C714.412418,41.3 709.612418,37.7 709.612418,29.6 L709.612418,29.3 C709.612418,22.4 715.912418,16.85 726.712418,16.85 C736.312418,16.85 745.762418,20.6 755.212418,27.65 L765.112418,13.7 C754.462418,5.15 742.312418,0.5 727.012418,0.5 C706.162418,0.5 691.162418,12.95 691.162418,30.95 L691.162418,31.25 C691.162418,50.6 703.762418,57.2 726.112418,62.6 C745.612418,67.1 749.812418,71.15 749.812418,78.65 L749.812418,78.95 C749.812418,86.75 742.612418,92.15 731.212418,92.15 C718.312418,92.15 708.112418,87.2 698.062418,78.5 L686.962418,91.7 C699.562418,102.95 714.712418,108.5 730.762418,108.5 Z" id="PEGASUS" fill="#000000" fill-rule="nonzero"></path>
    </g>
</svg>
